<svg width="40" height="40" viewBox="0 0 40 40" fill="none" xmlns="http://www.w3.org/2000/svg">
<g clip-path="url(#clip0_3_160)">
<path d="M29.9 29.9C27.051 32.0717 23.5818 33.2748 20 33.3333C8.33332 33.3333 1.66666 20 1.66666 20C3.73981 16.1365 6.61521 12.761 10.1 10.1M16.5 7.06666C17.6472 6.79813 18.8218 6.6639 20 6.66666C31.6667 6.66666 38.3333 20 38.3333 20C37.3216 21.8927 36.1151 23.6746 34.7333 25.3167M23.5333 23.5333C23.0756 24.0246 22.5236 24.4186 21.9102 24.6919C21.2969 24.9651 20.6348 25.1121 19.9635 25.1239C19.2921 25.1358 18.6253 25.0123 18.0027 24.7608C17.3801 24.5093 16.8145 24.135 16.3397 23.6603C15.8649 23.1855 15.4906 22.6199 15.2392 21.9973C14.9877 21.3747 14.8642 20.7079 14.876 20.0365C14.8879 19.3652 15.0348 18.7031 15.3081 18.0897C15.5814 17.4764 15.9754 16.9244 16.4667 16.4667M1.66666 1.66666L38.3333 38.3333" stroke="#1E1E1E" stroke-width="3.5" stroke-linecap="round" stroke-linejoin="round"/>
</g>
<defs>
<clipPath id="clip0_3_160">
<rect width="40" height="40" fill="white"/>
</clipPath>
</defs>
</svg>
