<svg width="40" height="40" viewBox="0 0 40 40" fill="none" xmlns="http://www.w3.org/2000/svg">
<g clip-path="url(#clip0_20_34)">
<path d="M26.6667 35V31.6667C26.6667 29.8986 25.9643 28.2029 24.7141 26.9526C23.4638 25.7024 21.7681 25 20 25H8.33334C6.56523 25 4.86954 25.7024 3.61929 26.9526C2.36905 28.2029 1.66667 29.8986 1.66667 31.6667V35M38.3333 18.3333H28.3333M20.8333 11.6667C20.8333 15.3486 17.8486 18.3333 14.1667 18.3333C10.4848 18.3333 7.50001 15.3486 7.50001 11.6667C7.50001 7.98477 10.4848 5 14.1667 5C17.8486 5 20.8333 7.98477 20.8333 11.6667Z" stroke="#1E1E1E" stroke-width="3.5" stroke-linecap="round" stroke-linejoin="round"/>
</g>
<defs>
<clipPath id="clip0_20_34">
<rect width="40" height="40" fill="white"/>
</clipPath>
</defs>
</svg>
